<svg width="24" height="24" viewBox="0 0 24 24" fill="none" xmlns="http://www.w3.org/2000/svg">
<path d="M7.8407 12.4575C7.8407 9.90766 9.90778 7.84058 12.4577 7.84058L19.3831 7.84058C21.933 7.84058 24.0001 9.90766 24.0001 12.4575C24.0001 15.0074 21.933 17.0745 19.3831 17.0745H12.4577C9.90778 17.0745 7.8407 15.0074 7.8407 12.4575Z" fill="#FF868E"/>
<path d="M12.4577 24C9.90778 24 7.8407 21.9329 7.8407 19.383L7.8407 12.4576C7.8407 9.90772 9.90778 7.84063 12.4577 7.84063V7.84063C15.0075 7.84063 17.0746 9.90772 17.0746 12.4576V19.383C17.0746 21.9329 15.0075 24 12.4577 24V24Z" fill="#FF868E"/>
<path d="M11.5424 2.8856C11.5424 4.47927 10.2505 5.7712 8.65684 5.7712C7.06317 5.7712 5.77124 4.47927 5.77124 2.8856C5.77124 1.29193 7.06317 0 8.65684 0C10.2505 0 11.5424 1.29193 11.5424 2.8856Z" fill="#FF868E"/>
<path d="M5.7712 16.7364C5.7712 18.3301 4.47927 19.622 2.8856 19.622C1.29193 19.622 0 18.3301 0 16.7364C0 15.1428 1.29193 13.8508 2.8856 13.8508C4.47927 13.8508 5.7712 15.1428 5.7712 16.7364Z" fill="#FF868E"/>
<path d="M19.6222 2.8856C19.6222 4.47927 18.3302 5.7712 16.7366 5.7712C15.1429 5.7712 13.851 4.47927 13.851 2.8856C13.851 1.29193 15.1429 0 16.7366 0C18.3302 0 19.6222 1.29193 19.6222 2.8856Z" fill="#FF868E"/>
<path d="M5.7712 8.65684C5.7712 10.2505 4.47927 11.5424 2.8856 11.5424C1.29193 11.5424 0 10.2505 0 8.65684C0 7.06317 1.29193 5.77124 2.8856 5.77124C4.47927 5.77124 5.7712 7.06317 5.7712 8.65684Z" fill="#FF868E"/>
</svg>
