<svg width="73" height="13" viewBox="0 0 73 13" fill="none" xmlns="http://www.w3.org/2000/svg">
<path d="M0.894409 12.8001L0.894409 0.435303L6.69281 0.435303C7.66561 0.435303 8.45921 0.620903 9.07361 0.992104C9.70081 1.3633 10.168 1.8689 10.4752 2.5089C10.7824 3.1489 10.936 3.8785 10.936 4.6977C10.936 5.5297 10.7568 6.2657 10.3984 6.9057C10.0528 7.5457 9.55361 8.0449 8.90081 8.4033C8.26081 8.7489 7.49921 8.9217 6.61601 8.9217H3.48641L3.48641 12.8001H0.894409ZM3.48641 6.8673H6.07841C6.82081 6.8673 7.37761 6.6753 7.74881 6.2913C8.13281 5.8945 8.32481 5.3633 8.32481 4.6977C8.32481 3.9809 8.14561 3.4369 7.78721 3.0657C7.42881 2.6817 6.89121 2.4897 6.17441 2.4897L3.48641 2.4897L3.48641 6.8673Z" fill="#1D1D1D"/>
<path d="M17.1118 12.9921C15.5374 12.9921 14.2894 12.6017 13.3678 11.8209C12.4462 11.0273 11.9854 9.8305 11.9854 8.2305C11.9854 6.7841 12.3694 5.6385 13.1374 4.7937C13.9182 3.9361 15.0766 3.5073 16.6126 3.5073C18.0206 3.5073 19.0958 3.8785 19.8382 4.6209C20.5934 5.3505 20.971 6.3105 20.971 7.5009V9.1521L14.3854 9.1521C14.5262 9.8817 14.859 10.3809 15.3838 10.6497C15.9214 10.9185 16.6766 11.0529 17.6494 11.0529C18.1358 11.0529 18.6286 11.0081 19.1278 10.9185C19.6398 10.8289 20.075 10.7137 20.4334 10.5729V12.4161C20.011 12.6081 19.5182 12.7489 18.955 12.8385C18.3918 12.9409 17.7774 12.9921 17.1118 12.9921ZM14.3854 7.5585H18.7054V7.0593C18.7054 6.5345 18.5518 6.1249 18.2446 5.8305C17.9374 5.5233 17.419 5.3697 16.6894 5.3697C15.8318 5.3697 15.2302 5.5425 14.8846 5.8881C14.5518 6.2337 14.3854 6.7905 14.3854 7.5585Z" fill="#1D1D1D"/>
<path d="M26.3853 12.9921C25.3357 12.9921 24.5549 12.7169 24.0429 12.1665C23.5437 11.6161 23.2941 10.8673 23.2941 9.9201V5.6961H22.0077V3.6993H23.2941V1.7409L25.8861 0.972903V3.6993H28.1901L28.0365 5.6961H25.8861V9.7473C25.8861 10.2465 26.0013 10.5921 26.2317 10.7841C26.4621 10.9633 26.8205 11.0529 27.3069 11.0529C27.6653 11.0529 28.0365 10.9889 28.4205 10.8609V12.6465C28.1389 12.7617 27.8317 12.8449 27.4989 12.8961C27.1661 12.9601 26.7949 12.9921 26.3853 12.9921Z" fill="#1D1D1D"/>
<path d="M32.9571 12.9921C32.2787 12.9921 31.6323 12.9409 31.0179 12.8385C30.4035 12.7489 29.9107 12.6337 29.5395 12.4929V10.3425C29.9875 10.5217 30.4931 10.6625 31.0563 10.7649C31.6195 10.8545 32.1379 10.8993 32.6115 10.8993C33.2515 10.8993 33.6995 10.8609 33.9555 10.7841C34.2243 10.7073 34.3587 10.5345 34.3587 10.2657C34.3587 9.9585 34.1539 9.7345 33.7443 9.5937C33.3475 9.4529 32.7523 9.2545 31.9587 8.9985C31.1267 8.7169 30.4867 8.3777 30.0387 7.9809C29.5907 7.5841 29.3667 6.9953 29.3667 6.2145C29.3667 5.3441 29.6803 4.6785 30.3075 4.2177C30.9475 3.7441 31.9715 3.5073 33.3795 3.5073C33.9427 3.5073 34.4739 3.5521 34.9731 3.6417C35.4723 3.7185 35.8947 3.8145 36.2403 3.9297V6.0609C35.8947 5.8945 35.4979 5.7729 35.0499 5.6961C34.6019 5.6065 34.1859 5.5617 33.8019 5.5617C33.2515 5.5617 32.8099 5.6001 32.4771 5.6769C32.1571 5.7537 31.9971 5.9201 31.9971 6.1761C31.9971 6.4577 32.1699 6.6561 32.5155 6.7713C32.8739 6.8865 33.4243 7.0593 34.1667 7.2897C34.8963 7.5073 35.4659 7.7441 35.8755 8.0001C36.2851 8.2561 36.5731 8.5633 36.7395 8.9217C36.9059 9.2673 36.9891 9.7025 36.9891 10.2273C36.9891 12.0705 35.6451 12.9921 32.9571 12.9921Z" fill="#1D1D1D"/>
<path d="M38.7882 12.8001V0.435303L44.5866 0.435303C45.5594 0.435303 46.353 0.620903 46.9674 0.992104C47.5946 1.3633 48.0618 1.8689 48.369 2.5089C48.6762 3.1489 48.8298 3.8785 48.8298 4.6977C48.8298 5.5297 48.6506 6.2657 48.2922 6.9057C47.9466 7.5457 47.4474 8.0449 46.7946 8.4033C46.1546 8.7489 45.393 8.9217 44.5098 8.9217H41.3802V12.8001H38.7882ZM41.3802 6.8673H43.9722C44.7146 6.8673 45.2714 6.6753 45.6426 6.2913C46.0266 5.8945 46.2186 5.3633 46.2186 4.6977C46.2186 3.9809 46.0394 3.4369 45.681 3.0657C45.3226 2.6817 44.785 2.4897 44.0682 2.4897H41.3802V6.8673Z" fill="#1D1D1D"/>
<path d="M52.749 12.9921C52.173 12.9921 51.6354 12.8897 51.1362 12.6849C50.6498 12.4673 50.253 12.1537 49.9458 11.7441C49.6514 11.3217 49.5042 10.7969 49.5042 10.1697C49.5042 9.2737 49.8178 8.5569 50.445 8.0193C51.085 7.4817 52.0258 7.2129 53.2674 7.2129H55.9554V6.9633C55.9554 6.4001 55.7954 6.0033 55.4754 5.7729C55.1682 5.5425 54.541 5.4273 53.5938 5.4273C52.557 5.4273 51.5586 5.5873 50.5986 5.9073V4.0833C51.021 3.9169 51.533 3.7825 52.1346 3.6801C52.749 3.5649 53.4146 3.5073 54.1314 3.5073C55.501 3.5073 56.557 3.7889 57.2994 4.3521C58.0546 4.9025 58.4322 5.7921 58.4322 7.0209V12.8001H56.1858L56.0514 11.9745C55.693 12.2945 55.2514 12.5441 54.7266 12.7233C54.2018 12.9025 53.5426 12.9921 52.749 12.9921ZM53.4594 11.2833C54.0354 11.2833 54.5346 11.1873 54.957 10.9953C55.3794 10.8033 55.7122 10.5601 55.9554 10.2657V8.8257H53.325C52.3138 8.8257 51.8082 9.2417 51.8082 10.0737C51.8082 10.8801 52.3586 11.2833 53.4594 11.2833Z" fill="#1D1D1D"/>
<path d="M62.0479 12.8001L59.6479 3.6993L62.2399 3.6993L63.6223 9.6129L65.1391 4.8705V3.6993H67.1167L68.8447 9.6129L70.1887 3.6993H72.7615L70.3807 12.8001H67.9999L66.2527 7.4817L64.4671 12.8001H62.0479Z" fill="#1D1D1D"/>
</svg>
